<?xml version="1.0" encoding="utf-8"?>
<!-- Generator: Adobe Illustrator 16.0.0, SVG Export Plug-In . SVG Version: 6.00 Build 0)  -->
<!DOCTYPE svg PUBLIC "-//W3C//DTD SVG 1.1//EN" "http://www.w3.org/Graphics/SVG/1.1/DTD/svg11.dtd">
<svg version="1.1" id="图层_1" xmlns="http://www.w3.org/2000/svg" xmlns:xlink="http://www.w3.org/1999/xlink" x="0px" y="0px"
	 width="30px" height="30px" viewBox="0 0 30 30" enable-background="new 0 0 30 30" xml:space="preserve">
<g>
	<path fill="#999999" d="M15,5.454C6.715,5.454,0,12.272,0,15s6.715,9.546,15,9.546c8.284,0,15-6.818,15-9.546
		S23.284,5.454,15,5.454L15,5.454z M15,21.818c-3.766,0-6.818-3.053-6.818-6.818S11.234,8.183,15,8.183
		c3.766,0,6.818,3.052,6.818,6.817S18.766,21.818,15,21.818L15,21.818z M15,21.818"/>
	<path fill="#999999" d="M15,10.266c-2.615,0-4.734,2.119-4.734,4.734s2.12,4.734,4.734,4.734c2.614,0,4.734-2.119,4.734-4.734
		S17.614,10.266,15,10.266L15,10.266z M15,10.266"/>
</g>
<rect fill="none" width="30" height="30"/>
</svg>
