<?xml version="1.0" encoding="utf-8"?>
<!-- Generator: Adobe Illustrator 16.0.0, SVG Export Plug-In . SVG Version: 6.00 Build 0)  -->
<!DOCTYPE svg PUBLIC "-//W3C//DTD SVG 1.1//EN" "http://www.w3.org/Graphics/SVG/1.1/DTD/svg11.dtd">
<svg version="1.1" id="图层_1" xmlns="http://www.w3.org/2000/svg" xmlns:xlink="http://www.w3.org/1999/xlink" x="0px" y="0px"
	 width="30px" height="30px" viewBox="0 0 30 30" enable-background="new 0 0 30 30" xml:space="preserve">
<g>
	<path fill="#999999" d="M15,0.156C6.787,0.156,0.156,6.786,0.156,15c0,8.212,6.63,14.844,14.843,14.844
		c8.214,0,14.844-6.632,14.844-14.844C29.844,6.786,23.214,0.156,15,0.156L15,0.156z M20.839,22.323l-5.542-5.543l-5.542,5.543
		L8.073,20.64l5.542-5.542L8.073,9.656l1.683-1.683l5.542,5.542l5.542-5.542l1.682,1.683l-5.541,5.442l5.541,5.542L20.839,22.323
		L20.839,22.323z M20.839,22.323"/>
</g>
</svg>
