<?xml version="1.0" encoding="utf-8"?>
<!-- Generator: Adobe Illustrator 16.0.0, SVG Export Plug-In . SVG Version: 6.00 Build 0)  -->
<!DOCTYPE svg PUBLIC "-//W3C//DTD SVG 1.1//EN" "http://www.w3.org/Graphics/SVG/1.1/DTD/svg11.dtd">
<svg version="1.1" id="图层_1" xmlns="http://www.w3.org/2000/svg" xmlns:xlink="http://www.w3.org/1999/xlink" x="0px" y="0px"
	 width="256px" height="256px" viewBox="0 0 256 256" enable-background="new 0 0 256 256" xml:space="preserve">
<path opacity="0.8" fill="#FFFFFF" stroke="#999999" stroke-miterlimit="10" d="M184.066,170.963c0,1.658-1.343,3-3,3h-94
	c-1.657,0-3-1.342-3-3v-94c0-1.657,1.343-3,3-3h94c1.657,0,3,1.343,3,3V170.963z"/>
<g>
	<path fill="#272636" d="M134.066,158.563c-19.108,0-34.599-15.492-34.599-34.599c0-19.108,15.491-34.599,34.599-34.599
		c19.105,0,34.599,15.491,34.599,34.599C168.665,143.07,153.172,158.563,134.066,158.563L134.066,158.563z M135.888,93.099v9.012
		c0,1.008-0.815,1.822-1.821,1.822c-1.009,0-1.822-0.814-1.822-1.822v-9.012c-15.637,0.913-28.133,13.407-29.045,29.043h9.015
		c1.008,0,1.821,0.816,1.821,1.822c0,1.007-0.813,1.821-1.821,1.821h-9.015c0.912,15.636,13.408,28.13,29.045,29.046v-9.016
		c0-1.006,0.813-1.82,1.822-1.82c1.006,0,1.821,0.814,1.821,1.82v9.016c15.637-0.916,28.133-13.41,29.045-29.046h-9.016
		c-1.007,0-1.82-0.814-1.82-1.821c0-1.006,0.813-1.822,1.82-1.822h9.016C164.021,106.506,151.524,94.012,135.888,93.099
		L135.888,93.099z M134.066,127.605c-2.012,0-3.642-1.631-3.642-3.642c0-2.011,1.63-3.642,3.642-3.642
		c2.01,0,3.641,1.631,3.641,3.642C137.707,125.974,136.076,127.605,134.066,127.605L134.066,127.605z M134.066,127.605"/>
</g>
</svg>
