<?xml version="1.0" encoding="utf-8"?>
<!-- Generator: Adobe Illustrator 16.0.0, SVG Export Plug-In . SVG Version: 6.00 Build 0)  -->
<!DOCTYPE svg PUBLIC "-//W3C//DTD SVG 1.1//EN" "http://www.w3.org/Graphics/SVG/1.1/DTD/svg11.dtd">
<svg version="1.1" id="图层_1" xmlns="http://www.w3.org/2000/svg" xmlns:xlink="http://www.w3.org/1999/xlink" x="0px" y="0px"
	 width="70px" height="70px" viewBox="0 0 70 70" enable-background="new 0 0 70 70" xml:space="preserve">
<g>
	<path fill="#1AAD16" d="M35,0C15.668,0,0,15.668,0,35c0,19.332,15.668,35,35,35c19.332,0,35-15.668,35-35C70,15.668,54.332,0,35,0
		L35,0z M35,66.82C17.429,66.82,3.181,52.572,3.181,35C3.181,17.425,17.429,3.182,35,3.182c17.576,0,31.82,14.243,31.82,31.818
		C66.82,52.572,52.576,66.82,35,66.82L35,66.82z M54.258,46.374c0-0.727-0.291-1.383-0.77-1.858c-0.141-0.14-0.297-0.26-0.466-0.363
		l-7.419-5.768c-0.473-0.477-1.135-0.771-1.856-0.771c-0.593,0-1.138,0.205-1.576,0.538l-2.068,2.087l-0.009-0.006
		c-0.319,0.358-0.78,0.588-1.3,0.588c-0.592,0-1.11-0.295-1.432-0.743c-0.008,0.016-0.024,0.029-0.035,0.05
		c-2.862-2.076-5.4-4.579-7.473-7.443c0.019-0.014,0.038-0.029,0.055-0.041c-0.453-0.32-0.754-0.848-0.754-1.448
		c0-0.537,0.245-1.011,0.622-1.334v-0.001l2.06-2.045c0.333-0.436,0.536-0.979,0.536-1.572c0-0.725-0.296-1.382-0.768-1.859
		l-5.771-7.417c-0.104-0.167-0.224-0.327-0.363-0.465c-0.476-0.477-1.133-0.771-1.859-0.771c-3.505,0-7.882,4.117-7.882,9.197
		c0,1.408,0.325,2.735,0.889,3.929l-0.029,0.03C21.86,39.379,30.618,48.14,41.118,53.413l0.028-0.03
		c1.194,0.566,2.521,0.892,3.931,0.892c5.078,0,9.197-4.38,9.197-7.886c0-0.004-0.003-0.008-0.003-0.014L54.258,46.374
		L54.258,46.374z"/>
</g>
</svg>
